<mxfile host="app.diagrams.net" modified="2023-10-16T21:58:08.727Z" agent="Mozilla/5.0 (Macintosh; Intel Mac OS X 10.15; rv:109.0) Gecko/20100101 Firefox/118.0" version="21.8.0" etag="_9g--zovI3KCtA89mmmd" type="github">
  <diagram name="Page-1" id="E_GN4J7ExMcWluHXBVHT">
    <mxGraphModel>
      <root>
        <mxCell id="0" />
        <mxCell id="1" parent="0" />
      </root>
    </mxGraphModel>
  </diagram>
</mxfile>
